<?xml version="1.0" encoding="UTF-8"?><svg id="Layer_2" xmlns="http://www.w3.org/2000/svg" viewBox="0 0 320 320"><defs><style>.cls-1{fill:none;stroke:#3a6d52;stroke-linecap:round;stroke-linejoin:round;stroke-width:20px;}</style></defs><g id="Layer_1-2"><path class="cls-1" d="m310,160h0c0-11.05-8.95-20-20-20h-6.29c-8.68,0-16.36-5.6-19.02-13.85-1.81-5.6-4.05-11-6.7-16.16-3.96-7.75-2.53-17.16,3.62-23.32l4.45-4.45c7.81-7.81,7.81-20.47,0-28.28h0c-7.81-7.81-20.47-7.81-28.28,0l-4.45,4.45c-6.16,6.16-15.57,7.59-23.32,3.62-5.16-2.64-10.57-4.89-16.16-6.7-8.25-2.67-13.85-10.35-13.85-19.02v-6.29c0-11.05-8.95-20-20-20h0c-11.05,0-20,8.95-20,20v6.29c0,8.68-5.6,16.36-13.85,19.02-5.6,1.81-11,4.05-16.16,6.7-7.75,3.96-17.16,2.53-23.32-3.62l-4.45-4.45c-7.81-7.81-20.47-7.81-28.28,0h0c-7.81,7.81-7.81,20.47,0,28.28l4.45,4.45c6.16,6.16,7.59,15.57,3.62,23.32-2.64,5.16-4.89,10.57-6.7,16.16-2.67,8.25-10.35,13.85-19.02,13.85h-6.29c-11.05,0-20,8.95-20,20h0c0,11.05,8.95,20,20,20h6.29c8.68,0,16.36,5.6,19.02,13.85,1.81,5.6,4.05,11,6.7,16.16,3.96,7.75,2.53,17.16-3.62,23.32l-4.45,4.45c-7.81,7.81-7.81,20.47,0,28.28h0c7.81,7.81,20.47,7.81,28.28,0l4.45-4.45c6.16-6.16,15.57-7.59,23.32-3.62,5.16,2.64,10.57,4.89,16.16,6.7,8.25,2.67,13.85,10.35,13.85,19.02v6.29c0,11.05,8.95,20,20,20h0c11.05,0,20-8.95,20-20v-6.29c0-8.68,5.6-16.36,13.85-19.02,5.6-1.81,11-4.05,16.16-6.7,7.75-3.96,17.16-2.53,23.32,3.62l4.45,4.45c7.81,7.81,20.47,7.81,28.28,0h0c7.81-7.81,7.81-20.47,0-28.28l-4.45-4.45c-6.16-6.16-7.59-15.57-3.62-23.32,2.64-5.16,4.89-10.57,6.7-16.16,2.67-8.25,10.35-13.85,19.02-13.85h6.29c11.05,0,20-8.95,20-20Z"/><circle class="cls-1" cx="160" cy="160" r="70"/></g></svg>