<?xml version="1.0" encoding="UTF-8"?><svg id="Layer_2" xmlns="http://www.w3.org/2000/svg" viewBox="0 0 320 320"><defs><style>.cls-1{fill:none;stroke:#fff;stroke-linecap:round;stroke-linejoin:round;stroke-width:20px;}</style></defs><g id="Layer_1-2"><path class="cls-1" d="m270,110H50c0-55.23,49.25-100,110-100s110,44.77,110,100Z"/><path class="cls-1" d="m30.61,110h258.78c13,0,22.75,11.55,20.2,23.92l-32.96,160c-1.93,9.35-10.38,16.08-20.2,16.08H63.57c-9.82,0-18.28-6.73-20.2-16.08L10.41,133.92c-2.55-12.38,7.2-23.92,20.2-23.92Z"/><path class="cls-1" d="m56.63,75.74c-7.76,17.81-6.63,34.26,33.37,34.26"/><path class="cls-1" d="m30.61,110c14.1,0,18.58-8.44,21.29-18.57"/><path class="cls-1" d="m263.37,75.74c7.76,17.81,6.63,34.26-33.37,34.26"/><path class="cls-1" d="m289.39,110c-14.1,0-18.58-8.44-21.29-18.57"/></g></svg>