<?xml version="1.0" encoding="UTF-8"?><svg id="Layer_2" xmlns="http://www.w3.org/2000/svg" viewBox="0 0 318.07 320"><defs><style>.cls-1{fill:none;stroke:#fff;stroke-linecap:round;stroke-linejoin:round;stroke-width:20px;}</style></defs><g id="Layer_1-2"><path class="cls-1" d="m172.09,185.56c-6.7,1.45-12.81-4.18-12.04-11.1,2.52-22.77,10.77-61.42,38.98-98.54,29.01-38.18,65.23-56.44,89.05-65.03,10.41-3.75,21.07,4.86,19.9,16.03-3.1,29.77-14.94,81.51-58.96,120.24-27.5,24.19-57.11,34.12-76.94,38.39Z"/><path class="cls-1" d="m145.98,185.56c6.7,1.45,12.81-4.18,12.04-11.1-2.52-22.77-10.77-61.42-38.98-98.54C90.03,37.74,53.82,19.48,29.99,10.89c-10.41-3.75-21.07,4.86-19.9,16.03,3.1,29.77,14.94,81.51,58.96,120.24,27.5,24.19,57.11,34.12,76.94,38.39Z"/><path class="cls-1" d="m124.82,179.6c23.18,8.05,34.2,5.31,34.2,38.42v91.97"/><path class="cls-1" d="m193.22,179.6c-23.18,8.05-34.2,5.31-34.2,38.42v91.97"/></g></svg>