<?xml version="1.0" encoding="UTF-8"?><svg id="Layer_2" xmlns="http://www.w3.org/2000/svg" xmlns:xlink="http://www.w3.org/1999/xlink" viewBox="0 0 365.54 394.2"><defs><style>.cls-1,.cls-2{fill:#fff;}.cls-3{stroke-linecap:round;stroke-linejoin:round;stroke-width:15px;}.cls-3,.cls-4{stroke:#3a6d52;}.cls-3,.cls-5,.cls-6{fill:none;}.cls-7{fill:#618a75;stroke:#618a75;}.cls-7,.cls-4{stroke-miterlimit:10;stroke-width:.75px;}.cls-2{font-family:BCAlphapipeTSB-Bold, 'BC Alphapipe';font-size:70px;font-weight:700;}.cls-8{letter-spacing:-.02em;}.cls-4{fill:#3a6d52;}.cls-6{clip-path:url(#clippath);}</style><clipPath id="clippath"><polygon class="cls-5" points="30.56 123.29 180.56 3.29 330.56 123.29 330.56 303.29 30.56 303.29 30.56 123.29"/></clipPath></defs><g id="Layer_1-2"><g class="cls-6"><rect class="cls-1" x="-4.73" y="-20" width="361.89" height="361.89"/><path class="cls-7" d="m166.67,97.21c-6.2,5.11-12.67,10.8-18.77,16.84-6.44,6.36-8.88,15.81-6.07,24.41,16.55,50.52,44.83,97.83,82.02,137.22,24.55,25.99-70.06-13.74-97.25-121.77-1.06-4.21-6.75-4.89-8.83-1.08-5.25,9.64-10.37,21.48-14.76,33.2,28.51,53.08,66.79,99.29,113.31,139.69h83.46c-62.86-69.86-110.03-145.07-133.1-228.49Z"/><path class="cls-4" d="m355.81,325.71l-4.05-224.09-75.8-61.76c-9.29,2.63-17.96,5.44-25.59,8.42-9.65,3.78-15.79,13.37-15.26,23.72,2.28,44.2,21.94,90.67,38.55,130.14,11.95,28.42-38.37,3.42-71.01-112-2.27-8.02-11.79-11.36-18.53-6.45-5.08,3.7-11.13,8.3-17.46,13.51,23.08,83.43,70.24,158.64,133.1,228.49h56.04Z"/><path class="cls-4" d="m103,186.02c-4.64,12.38-8.46,24.61-10.71,33.95-1.62,6.69-.22,13.76,3.77,19.37,20.62,28.99,46.73,54.44,76.52,74.55,14.78,9.96-23.85,9.5-73.6-45.55-3.19-3.53-8.97-.86-8.37,3.85,2.2,17.17,7.02,34.06,14.68,49.93.58,1.2,1.19,2.4,1.8,3.59h109.23c-46.52-40.4-84.79-86.61-113.31-139.69Z"/><path class="cls-1" d="m293.39,225.17c2.42-2.74,14.29,1.17,19.7,9.69,2.87,4.53,4.61,11.44,2.26,13.24-2.86,2.19-11.41-3.45-16.47-9.69-2.85-3.51-7.56-10.89-5.49-13.24Z"/></g><path class="cls-3" d="m36.19,118.79L171.19,10.79c5.48-4.38,13.26-4.38,18.74,0l135,108c3.56,2.85,5.63,7.16,5.63,11.71v157.79c0,8.28-6.72,15-15,15H45.56c-8.28,0-15-6.72-15-15v-157.79c0-4.56,2.07-8.87,5.63-11.71Z"/><text class="cls-2" transform="translate(0 377.47)"><tspan x="0" y="0">pla</tspan><tspan class="cls-8" x="105.7" y="0">n</tspan><tspan x="144.83" y="0">thouse</tspan></text></g></svg>