<?xml version="1.0" encoding="UTF-8"?><svg id="Layer_2" xmlns="http://www.w3.org/2000/svg" xmlns:xlink="http://www.w3.org/1999/xlink" viewBox="0 0 488.04 103.6"><defs><style>.cls-1{stroke-miterlimit:10;stroke-width:.25px;}.cls-1,.cls-2{stroke:#fff;}.cls-1,.cls-3{fill:#fff;}.cls-2{stroke-linecap:round;stroke-linejoin:round;stroke-width:5px;}.cls-2,.cls-4,.cls-5{fill:none;}.cls-3{font-family:BCAlphapipeTSB-Bold, 'BC Alphapipe';font-size:70px;font-weight:700;}.cls-6{letter-spacing:-.02em;}.cls-5{clip-path:url(#clippath);}</style><clipPath id="clippath"><polygon class="cls-4" points="2.5 41.1 52.5 1.1 102.5 41.1 102.5 101.1 2.5 101.1 2.5 41.1"/></clipPath></defs><g id="Layer_1-2"><g class="cls-5"><rect class="cls-4" x="-9.26" y="-6.67" width="120.63" height="120.63"/><path class="cls-1" d="m109.57,33.87l-25.27-20.59c-3.1.88-5.99,1.81-8.53,2.81-3.22,1.26-5.26,4.46-5.09,7.91.76,14.73,7.31,30.22,12.85,43.38,3.98,9.47-12.79,1.14-23.67-37.33-.76-2.67-3.93-3.79-6.18-2.15-1.69,1.23-3.71,2.77-5.82,4.5-2.07,1.7-4.22,3.6-6.26,5.61-2.15,2.12-2.96,5.27-2.02,8.14,5.52,16.84,14.94,32.61,27.34,45.74,8.18,8.66-23.35-4.58-32.42-40.59-.35-1.4-2.25-1.63-2.94-.36-1.75,3.21-3.46,7.16-4.92,11.07-1.55,4.13-2.82,8.2-3.57,11.32-.54,2.23-.07,4.59,1.26,6.46,6.87,9.66,15.58,18.15,25.51,24.85,4.93,3.32-7.95,3.17-24.53-15.18-1.06-1.18-2.99-.29-2.79,1.28.73,5.72,2.34,11.35,4.89,16.64.19.4.4.8.6,1.2h82.91l-1.35-74.7Zm-12.14,48.83c-.95.73-3.8-1.15-5.49-3.23-.95-1.17-2.52-3.63-1.83-4.41.81-.91,4.76.39,6.57,3.23.96,1.51,1.54,3.81.75,4.41Z"/></g><path class="cls-2" d="m4.38,39.6L49.38,3.6c1.83-1.46,4.42-1.46,6.25,0l45,36c1.19.95,1.88,2.39,1.88,3.9v52.6c0,2.76-2.24,5-5,5H7.5c-2.76,0-5-2.24-5-5v-52.6c0-1.52.69-2.96,1.88-3.9Z"/><text class="cls-3" transform="translate(122.5 81.1)"><tspan x="0" y="0">pla</tspan><tspan class="cls-6" x="105.7" y="0">n</tspan><tspan x="144.83" y="0">thouse</tspan></text></g></svg>